<svg width="24" height="24" viewBox="0 0 24 24" fill="none" xmlns="http://www.w3.org/2000/svg">
<circle cx="12" cy="12" r="7" stroke="#151515" stroke-width="2"/>
<path d="M11 12.2849C11 11.6636 11.5037 11.1599 12.125 11.1599H13V13.1599C13 13.7122 12.5523 14.1599 12 14.1599C11.4477 14.1599 11 13.7122 11 13.1599V12.2849Z" fill="#151515"/>
<circle cx="12" cy="15.75" r="1" fill="#151515"/>
<path fill-rule="evenodd" clip-rule="evenodd" d="M11.0201 9.88402C10.9743 9.94119 10.9224 9.99321 10.8653 10.0391C10.8921 10.0136 10.9538 9.95407 11.0201 9.88402Z" fill="#151515"/>
<path d="M11.9999 13.2C12.5932 13.2 13.1733 13.024 13.6666 12.6944C14.16 12.3647 14.5445 11.8962 14.7715 11.348C14.9986 10.7998 15.058 10.1966 14.9423 9.61468C14.8265 9.03274 14.5408 8.49819 14.1212 8.07863C13.7017 7.65907 13.1671 7.37335 12.5852 7.2576C12.0032 7.14184 11.4 7.20125 10.8518 7.42831C10.3037 7.65538 9.78419 8.14598 9.45454 8.63932C9.31974 8.80973 9.23926 9.02509 9.23926 9.25925C9.23926 9.81153 9.68697 10.2592 10.2393 10.2592C10.4762 10.2592 10.6939 10.1768 10.8653 10.0391C10.8921 10.0136 10.9538 9.95407 11.0201 9.88402C11.0861 9.81425 11.1566 9.73404 11.2017 9.6666C11.3072 9.50873 11.4571 9.38569 11.6325 9.31303C11.8079 9.24037 12.001 9.22136 12.1872 9.2584C12.3734 9.29544 12.5445 9.38687 12.6787 9.52113C12.813 9.65539 12.9044 9.82644 12.9415 10.0127C12.9785 10.1989 12.9595 10.3919 12.8868 10.5673C12.8142 10.7427 12.6911 10.8927 12.5332 10.9982C12.3754 11.1036 12.1898 11.16 11.9999 11.16L11.9999 13.2Z" fill="#151515"/>
</svg>
